<?xml version="1.0" encoding="UTF-8"?>
<svg version="1.1" xmlns="http://www.w3.org/2000/svg" width="512" height="512">
<path d="M0 0 C6.24677893 4.39835593 9.84807924 9.98970019 11.19140625 17.54296875 C11.52981963 23.72129957 10.62618155 28.24095986 8.45703125 33.99609375 C8.14912659 34.84343079 7.84122192 35.69076782 7.52398682 36.56378174 C6.42803622 39.56255119 5.31054102 42.55277698 4.19140625 45.54296875 C3.29997985 47.94590777 2.40871275 50.34890589 1.51757812 52.75195312 C-1.36313273 60.50242103 -4.27461469 68.24124519 -7.18795776 75.97949219 C-8.6784648 79.9401062 -10.16628013 83.9017311 -11.65429688 87.86328125 C-13.82648725 93.64574018 -15.99937003 99.42793791 -18.17318726 105.20978546 C-21.99934007 115.38669104 -25.81990443 125.56568238 -29.63671875 135.74609375 C-30.05088169 136.85076115 -30.05088169 136.85076115 -30.47341156 137.97774506 C-31.86277054 141.68357738 -33.25202646 145.38944832 -34.64123535 149.09533691 C-37.16476312 155.82701062 -39.68921464 162.55833793 -42.2135849 169.28969574 C-43.62029125 173.04077297 -45.0269396 176.79187194 -46.43359375 180.54296875 C-46.99609347 182.04296885 -47.55859347 183.54296885 -48.12109375 185.04296875 C-48.39953125 185.78546875 -48.67796875 186.52796875 -48.96484375 187.29296875 C-63.73046875 226.66796875 -63.73046875 226.66796875 -78.49609375 266.04296875 C-78.77453786 266.78548669 -79.05298197 267.52800463 -79.33986378 268.29302311 C-79.90229618 269.79284222 -80.46472943 271.29266103 -81.02716351 272.79247952 C-82.43445454 276.54524448 -83.841731 280.29801491 -85.24897766 284.05079651 C-87.76778131 290.76778533 -90.28667963 297.48473855 -92.80613804 304.20148182 C-94.19635295 307.90773118 -95.58648038 311.61401334 -96.9765625 315.3203125 C-97.25244894 316.0558882 -97.52833538 316.79146389 -97.81258202 317.54932976 C-101.68185182 327.86619415 -105.54699101 338.18459869 -109.40933228 348.50405884 C-111.58094937 354.30616212 -113.75365569 360.10785735 -115.9265995 365.90946388 C-117.69067158 370.61971887 -119.45330951 375.33050708 -121.21482563 380.04171848 C-122.30726824 382.96239006 -123.40112752 385.88252962 -124.49535179 388.8025341 C-124.99598943 390.13937401 -125.49606295 391.47642536 -125.99547768 392.81372261 C-128.60028558 399.78779308 -131.24771643 406.7446751 -133.9753418 413.67163086 C-134.44884567 414.87766464 -134.92234955 416.08369843 -135.41020203 417.32627869 C-138.75898981 425.02942237 -143.29294248 429.80918038 -150.80859375 433.54296875 C-157.16914365 435.66315205 -165.182585 435.76034479 -171.30859375 432.85546875 C-177.76345649 428.97712685 -181.85629126 423.58641684 -184.55859375 416.60546875 C-185.3316919 410.22740902 -184.70253906 405.0112478 -182.5390625 398.98828125 C-182.27699509 398.2316922 -182.01492767 397.47510315 -181.74491882 396.69558716 C-177.37938109 384.26065758 -172.63635748 371.95633893 -167.96165848 359.63506699 C-166.52292872 355.84023109 -165.08852405 352.04376169 -163.65405273 348.24731445 C-163.36163224 347.47343038 -163.06921175 346.6995463 -162.76793003 345.90221119 C-162.17116869 344.32287386 -161.57442202 342.74353098 -160.97768974 341.16418266 C-160.06919224 338.76013646 -159.16025985 336.35625505 -158.25123596 333.95240784 C-152.20738942 317.96735717 -146.20412107 301.96717632 -140.20806503 285.96414948 C-138.80217364 282.21215396 -137.39580704 278.46033657 -135.98950195 274.70849609 C-134.00880881 269.42409734 -132.02831175 264.13962516 -130.04802036 258.85507584 C-126.38493866 249.07995613 -122.72021372 239.30545329 -119.0546875 229.53125 C-118.63720592 228.418024 -118.63720592 228.418024 -118.21129036 227.28230858 C-116.80591004 223.53484705 -115.40050411 219.78739512 -113.99508667 216.03994751 C-111.46404797 209.29107205 -108.93323648 202.54211138 -106.40240669 195.79315758 C-104.99614491 192.04309119 -103.5898686 188.29303024 -102.18359375 184.54296875 C-101.62109368 183.04296878 -101.05859368 181.54296878 -100.49609375 180.04296875 C-99.37109375 177.04296875 -98.24609375 174.04296875 -97.12109375 171.04296875 C-96.84265027 170.3004527 -96.56420679 169.55793665 -96.27732563 168.79292011 C-95.71488631 167.29308213 -95.15244671 165.79324426 -94.59000683 164.29340649 C-93.18282617 160.54092844 -91.77565036 156.78844856 -90.3684845 153.03596497 C-87.84835275 146.3155539 -85.32818919 139.59515477 -82.80783939 132.87482548 C-81.41613933 129.16395532 -80.02446836 125.45307424 -78.6328125 121.7421875 C-78.3566831 121.00588293 -78.0805537 120.26957836 -77.79605675 119.51096153 C-73.94928679 109.25330191 -70.10387892 98.9951325 -66.25942993 88.73660278 C-64.10462953 82.98675088 -61.94946118 77.23703691 -59.79421425 71.48735237 C-58.3309258 67.5835619 -56.86784127 63.67969528 -55.40527344 59.77563477 C-54.84961566 58.29247811 -54.29395169 56.80932378 -53.73828125 55.32617188 C-53.3344349 54.24821507 -53.3344349 54.24821507 -52.92243004 53.14848137 C-51.13492639 48.37841649 -49.34300319 43.61002789 -47.54931641 38.84228516 C-45.822034 34.25045359 -44.10768579 29.6542535 -42.40771484 25.05224609 C-41.70158974 23.15719215 -40.99537943 21.26216996 -40.2890625 19.3671875 C-39.98809158 18.54128616 -39.68712067 17.71538483 -39.37702942 16.86445618 C-36.13810214 8.22641714 -31.79354332 2.4342395 -23.68359375 -2.26953125 C-15.66641278 -5.33128028 -7.31228293 -4.1901846 0 0 Z " fill="#000000" transform="translate(342.80859375,40.45703125)"/>
<path d="M0 0 C10.58192441 7.75042062 19.65659218 18.45392977 28.921875 27.68359375 C29.82091805 28.57856127 30.71996109 29.47352879 31.64624786 30.39561653 C35.90941122 34.64015765 40.1705534 38.88670317 44.42860961 43.13636631 C49.31132917 48.0092954 54.2022435 52.87380396 59.10018039 57.73143619 C63.37181234 61.96913846 67.6322869 66.21788912 71.8890152 70.4705677 C73.68927518 72.26597441 75.49289626 74.0580178 77.30001068 75.84652519 C79.8290426 78.35110584 82.34503653 80.86813538 84.85839844 83.38842773 C85.59722763 84.11444687 86.33605682 84.840466 87.09727478 85.58848572 C94.08416705 92.64547004 99.82095579 100.03313335 100.15234375 110.27734375 C99.74643822 117.53160403 97.89400402 122.37205328 92.9282074 127.73948669 C92.12123854 128.61243818 91.31426968 129.48538967 90.48284721 130.38479424 C86.71894899 134.34934279 82.8941526 138.24531208 79.02368164 142.10571289 C78.17701935 142.9541275 77.33035706 143.80254211 76.45803833 144.67666626 C74.16905009 146.96926283 71.87787776 149.25964568 69.58548665 151.54883885 C67.17595923 153.95580853 64.76890181 156.36524643 62.36143494 158.77427673 C58.32958214 162.80793855 54.2956479 166.83950969 50.26049805 170.86987305 C45.59542546 175.52947582 40.93400593 180.19270987 36.27440935 184.85778815 C32.26078151 188.87594817 28.2452158 192.89216375 24.22801107 196.90674776 C21.83377629 199.29942414 19.44022111 201.69276985 17.04841805 204.08787727 C14.3915366 206.74728511 11.73149381 209.40348897 9.07055664 212.05883789 C8.27837234 212.85304642 7.48618805 213.64725494 6.66999817 214.4655304 C5.58733673 215.5439621 5.58733673 215.5439621 4.48280334 216.6441803 C3.85476838 217.27183824 3.22673342 217.89949617 2.57966709 218.54617405 C-0.27189047 221.17056777 -2.95667796 221.52629775 -6.80883789 221.46557617 C-9.5151254 220.89054661 -10.65786443 219.92045757 -12.68359375 218.05078125 C-13.7209668 217.09776123 -13.7209668 217.09776123 -14.77929688 216.12548828 C-18.71380803 212.35967318 -22.59586341 208.54801441 -26.4375 204.6875 C-27.25154297 203.87732422 -28.06558594 203.06714844 -28.90429688 202.23242188 C-30.06348633 201.07129883 -30.06348633 201.07129883 -31.24609375 199.88671875 C-31.94404053 199.18764404 -32.6419873 198.48856934 -33.36108398 197.76831055 C-35.67171071 195.27525686 -35.980092 194.20704318 -36.3125 190.75 C-35.7025398 183.43047761 -30.1107308 178.82762424 -25.12011719 173.89306641 C-24.43678314 173.20944031 -23.7534491 172.52581421 -23.04940796 171.82147217 C-20.8032746 169.57672537 -18.55015397 167.33913448 -16.296875 165.1015625 C-14.73273808 163.5411581 -13.16904392 161.98030978 -11.60577393 160.41903687 C-7.50025888 156.32113944 -3.38877207 152.22928515 0.72399902 148.13867188 C4.92379832 143.95937129 9.11790588 139.77436738 13.3125 135.58984375 C21.53611472 127.38764594 29.76605125 119.19182281 38 111 C36.69762683 108.1219871 35.32717835 106.08746023 33.07078552 103.8841095 C32.47207642 103.29421234 31.87336731 102.70431519 31.2565155 102.09654236 C30.27380424 101.14346947 30.27380424 101.14346947 29.27124023 100.17114258 C28.58005096 99.4925116 27.88886169 98.81388062 27.17672729 98.11468506 C25.67653814 96.64218038 24.17427573 95.17178565 22.67019463 93.70325661 C20.28958722 91.37595027 17.91786247 89.03994958 15.54884338 86.70085144 C8.81327339 80.05076005 2.07296921 73.40577597 -4.69995117 66.79370117 C-8.84331456 62.7474701 -12.96681573 58.68189754 -17.07807732 54.60306358 C-18.64690737 53.05401317 -20.22301788 51.51229989 -21.80648994 49.97821999 C-24.02338221 47.82895798 -26.21408595 45.65589517 -28.40063477 43.47583008 C-29.05779984 42.85056931 -29.7149649 42.22530853 -30.39204407 41.58110046 C-34.34463324 37.57473684 -35.7681877 34.61658613 -36.12467194 28.97441101 C-35.7958197 23.76642675 -31.73922355 20.48297399 -28.25390625 16.98828125 C-27.33416016 16.06595703 -26.41441406 15.14363281 -25.46679688 14.19335938 C-24.98976318 13.72051514 -24.51272949 13.2476709 -24.02124023 12.76049805 C-22.56321085 11.31320562 -21.11619464 9.85551476 -19.66992188 8.39648438 C-18.74888672 7.47802734 -17.82785156 6.55957031 -16.87890625 5.61328125 C-16.0391626 4.77579346 -15.19941895 3.93830566 -14.33422852 3.07543945 C-9.81495363 -0.9427967 -5.84470713 -2.15786806 0 0 Z " fill="#000000" transform="translate(400,146)"/>
<path d="M0 0 C1.80810547 1.33447266 1.80810547 1.33447266 3.6796875 3.0390625 C4.37634521 3.67102539 5.07300293 4.30298828 5.79077148 4.95410156 C6.51981689 5.62924805 7.2488623 6.30439453 8 7 C8.73355713 7.66741211 9.46711426 8.33482422 10.22290039 9.02246094 C12.49124213 11.11023447 14.71637754 13.23714543 16.9375 15.375 C18.08702148 16.43074219 18.08702148 16.43074219 19.25976562 17.5078125 C23.59242746 21.7138332 25.87934957 24.74818354 26.35766602 30.84619141 C25.35614203 36.8772116 20.28834836 40.98435375 16.1418457 45.08520508 C15.44890411 45.77843872 14.75596252 46.47167236 14.04202271 47.18591309 C11.75798574 49.4685604 9.46695368 51.74404802 7.17578125 54.01953125 C5.58779539 55.60378569 4.00025148 57.18848324 2.41313171 58.77360535 C-1.75980577 62.93891653 -5.93871513 67.09818587 -10.11889648 71.25622559 C-14.38562172 75.50247087 -18.64667185 79.75440259 -22.90820312 84.00585938 C-31.26659083 92.34281486 -39.63129848 100.67339855 -48 109 C-46.70333414 111.85606339 -45.33958978 113.90676247 -43.11547852 116.11157227 C-42.52662872 116.70028107 -41.93777893 117.28898987 -41.33108521 117.89553833 C-40.68686615 118.52942474 -40.04264709 119.16331116 -39.37890625 119.81640625 C-38.69907684 120.49331512 -38.01924744 121.170224 -37.31881714 121.86764526 C-35.84340856 123.33544811 -34.36569412 124.80093597 -32.88595581 126.26437378 C-30.54497983 128.57982917 -28.21030306 130.90146988 -25.87719727 133.22485352 C-20.92368319 138.15550507 -15.96240553 143.07829937 -11 148 C-5.24993937 153.70289487 0.49691099 159.40894601 6.23538208 165.12350464 C8.53691097 167.41205527 10.84437638 169.69450482 13.15209961 171.97680664 C14.56133013 173.37877257 15.97028088 174.7810198 17.37890625 176.18359375 C18.02312531 176.81748016 18.66734436 177.45136658 19.33108521 178.10446167 C19.919935 178.69317047 20.50878479 179.28187927 21.11547852 179.88842773 C21.62724136 180.39574936 22.13900421 180.90307098 22.66627502 181.42576599 C25.03802435 184.22521005 25.93764526 186.63972817 26.5625 190.25 C25.97296927 194.1802049 25.58448868 194.85864095 23.046875 197.64453125 C22.41209229 198.34175293 21.77730957 199.03897461 21.12329102 199.75732422 C17.37529634 203.71605471 13.55160879 207.59228661 9.6875 211.4375 C8.87732422 212.25154297 8.06714844 213.06558594 7.23242188 213.90429688 C6.07129883 215.06348633 6.07129883 215.06348633 4.88671875 216.24609375 C4.18764404 216.94404053 3.48856934 217.6419873 2.76831055 218.36108398 C0.23405791 220.70989496 -0.7827667 220.98360503 -4.3125 221.25 C-9.96012152 220.86711041 -13.15236271 218.09543965 -17.06703186 214.20039368 C-18.22982414 213.05039635 -18.22982414 213.05039635 -19.41610718 211.87716675 C-20.67011826 210.62179611 -20.67011826 210.62179611 -21.94946289 209.34106445 C-22.84109634 208.45614822 -23.7327298 207.57123199 -24.65138245 206.65950012 C-27.09004046 204.23846312 -29.52221908 201.81101724 -31.95271993 199.38179421 C-33.47382239 197.86211621 -34.99634133 196.34387244 -36.51937675 194.82613182 C-41.83935517 189.52464131 -47.15415675 184.21802405 -52.46411133 178.90649414 C-57.40317243 173.96623222 -62.35327153 169.03722698 -67.30870253 164.11339027 C-71.5716322 159.87666797 -75.82675792 155.63221296 -80.07596582 151.38172883 C-82.60999656 148.84718973 -85.14699068 146.31580844 -87.69188118 143.79216957 C-90.5325473 140.97458128 -93.35680974 138.141075 -96.17993164 135.3059082 C-97.01796326 134.4791156 -97.85599487 133.652323 -98.71942139 132.80047607 C-105.54418728 125.90158452 -109.5570745 119.63451252 -110.08984375 109.73046875 C-109.64924573 96.3401201 -98.4567401 87.14913309 -89.5625 78.375 C-88.65951172 77.47265625 -87.75652344 76.5703125 -86.82617188 75.640625 C-83.15787168 71.99623118 -79.49656106 68.41308435 -75.55566406 65.06445312 C-69.73558774 60.00287777 -64.37513028 54.46886409 -58.94890404 48.99350357 C-56.94653322 46.97357949 -54.94049875 44.9573596 -52.9334259 42.94210815 C-47.233282 37.21763744 -41.53896824 31.48739222 -35.84887695 25.75292969 C-32.35554906 22.23287096 -28.85740672 18.71765722 -25.35622597 15.20541 C-24.02544444 13.86841589 -22.69656404 12.52952672 -21.36961937 11.18872452 C-19.52199634 9.32195384 -17.668358 7.4613615 -15.81323242 5.60205078 C-14.99267113 4.76834709 -14.99267113 4.76834709 -14.15553284 3.9178009 C-9.41932499 -0.8061956 -6.54948302 -1.71789719 0 0 Z " fill="#000000" transform="translate(122,146)"/>
</svg>
